<?xml version="1.0" encoding="UTF-8"?>
<svg id="svg7066" version="1.1" xmlns="http://www.w3.org/2000/svg" xmlns:cc="http://creativecommons.org/ns#" xmlns:dc="http://purl.org/dc/elements/1.1/" xmlns:rdf="http://www.w3.org/1999/02/22-rdf-syntax-ns#">
 <metadata id="metadata7072">
  <rdf:RDF>
   <cc:Work rdf:about="">
    <dc:format>image/svg+xml</dc:format>
    <dc:type rdf:resource="http://purl.org/dc/dcmitype/StillImage"/>
    <dc:title/>
   </cc:Work>
  </rdf:RDF>
 </metadata>
<symbol id="mastodon-svg-logo-full" viewBox="0 0 713.35878 175.8678">
 <g id="layer3">
  <path id="path7566" d="m146.94 102.25c0 17 5.9804 27.646-2.3496 32.523-15.899 9.3067-25.965 9.5047-56.664 9.5047-36.513 0-48.881-4.071-86.053-13.208-3.2846-0.8074 3.5783-6.2543 4.234-12.665 1.1941-11.675 9.0302-23.703 20.166-23.068 3.4576 0.19732 9.0069 3.5001 10.463 1.0764 3.8333-6.3814-4.5547-25 18.168-36.42 5.9807-3.006 10.239-11.476 20.845-15.336 16.167-5.8841 11.244-1.4382 22.77 5.977 2.1382 1.3756 1.3593 5.476 4.5514 7.9172 3.3487 2.561 11.385 2.321 19.387 6.9122 1.6847 0.96656 2.1757-1.7862 3.3682-2.8144 2.5355-2.1862 5.2583-5.5276 8.3971-11.658 3.754-7.3319 2.8191-17.495-0.86289-26.033-1.8995-4.4047-10.812-10.392-10.438-14.233 0.26211-2.6921 6.6082-0.29179 7.4614-3.105 1.5552-5.1281 5.4813-6.0967 6.7281-5.5189 3.0934 1.4337-1.2262 2.4014 1.7022 4.361 7.8892 5.2794 15.257 12.207 19.188 22.322 5.3523 13.773 7.7669 21.167 6.1342 34.905-1.1039 9.288-17.197 32.966-17.197 38.562z" fill="#ccc"/>
  <path id="path7563" d="m125.54 93.858c0 14.148-4.9634 25.618-11.086 25.618-1.5453 0-10.182-0.61566-10.787-2.2108-0.0604-0.15896-5.3773-0.19464-9.3248 1.5643-2.3437 1.0443-3.8486 4.3104-5.6869 5.3867-1.9415 1.1366-4.1858 0.0381-5.5035-0.66167-1.8528-0.98392 1.0149-3.7329 0.73335-4.7673-1.0109-3.7144-0.48639-4.1687 0.22677-5.2606 1.4822-2.2694 3.8847-2.925 4.6567-3.5827 1.0928-0.93116 12.037-1.08 12.722-2.5496 2.3507-5.0404 10.048-10.41 10.566-16.382 0.18411-2.1207 0.13087-8.7837-3.5715-12.99-2.1658-2.4607-8.8294-7.9719-7.3344-10.663 2.076-3.7368 0.72062-2.0244 8.8086 0.13299 5.9158 1.578 15.58 12.218 15.58 26.367z" fill="#fff"/>
  <path id="path7569" d="m187.23 134.8c0 5.0057-6.102 4.8263-12.845 4.8263s-19.307-7.8714-19.307-12.877 6.8435-8.5339 13.587-8.5339c6.7432 0 18.566 11.579 18.566 16.585z" fill="#ccc"/>
 </g>
 <g id="layer2">
  <g id="g7530" transform="matrix(.059138 0 0 -.059138 -4.7308 141.35)">
   <path id="path7524" d="m2311 2348c-18-18-34-43-38-55-3-13-10-23-17-22-75 9-130-28-124-83 2-17 10-34 18-38s31-16 51-25c57-28 128-148 155-261 32-138 11-296-54-398-34-54-141-166-160-166-7 0-26 8-40 18-42 28-141 69-202 82-48 11-58 17-80 53-39 63-160 181-215 207-85 42-208 30-275-27-17-14-30-22-30-19 0 9-104-25-121-40-9-8-24-32-33-53-15-33-25-40-74-55-101-32-233-107-293-167-47-47-59-68-82-137-20-59-27-102-27-155 0-65 3-79 29-118 28-41 29-45 15-78-8-19-16-36-17-38-2-1-21 2-42 8-60 17-172 7-227-19-99-49-132-83-188-199-29-59-77-178-106-263-44-129-50-156-37-158 22-5 27 5 73 150 54 168 135 333 186 377 60 53 136 84 208 83 100 0 144-17 204-78 29-30 55-54 57-54 19 0-4 40-48 85l-54 53 32 65c110 222 287 389 507 476 169 68 362 98 521 81 103-11 229-48 290-87 36-23 39-27 24-38-16-11-24-35-12-35 22 0 97 51 155 107 81 76 132 166 155 278 18 86 18 128 0 228-25 142-126 313-196 333-24 7-34 16-34 29 0 29 42 46 103 42 53-4 61 0 41 20-8 8-6 19 4 40 33 62 84 73 79 17-2-26 3-35 37-59 56-38 189-179 238-250 77-115 153-286 173-394 7-40 6-47-13-61-12-8-25-14-29-12-5 1-8-3-8-8 0-6-5-10-10-10-6 0-28-11-49-24-21-14-41-22-45-19-3 3-8-2-12-11-3-9-10-14-15-11-14 9-36-36-63-133-31-112-62-175-109-223-72-74-251-209-261-198-2 2-16 33-31 69-45 109-169 251-257 296-53 27-122 31-150 10-35-26-22-60 56-143 93-99 118-147 124-238 6-96-5-119-62-134-75-19-146-94-146-155 0-32-40-45-75-26-20 11-27 11-40 0-12-10-18-10-30 0s-16 10-19-1c-2-8-6-21-9-31-4-10-22-19-46-23-35-6-41-10-41-31 0-14-7-27-15-30-11-5-13-16-9-48 5-36 3-46-16-64-28-26-15-53 32-72 18-8 34-14 35-15 1 0-13-31-32-69-19-37-35-69-35-72 0-2 34-4 76-4 70 0 80-3 142-39 100-59 164-74 291-69 88 4 116 9 166 32 32 15 63 32 67 39 15 24 7 83-17 124l-24 43h75c41 0 89 6 107 14 31 13 94 74 149 146 15 19 30 32 33 29 3-4 10-35 15-70 13-84 51-232 62-240 5-3 31-4 57-1 43 4 53 1 94-31 69-53 190-87 320-90 96-2 106 0 140 23 90 61 74 142-54 271-88 89-144 119-220 119-93 0-159-41-271-168-26-29-49-48-52-43-4 5-16 65-27 133-16 91-20 148-16 219 5 106 15 130 76 199 59 66 156 234 185 320 56 167 76 405 46 545-26 123-114 310-195 414-54 70-168 187-217 225-28 21-38 36-38 56 0 65-68 81-119 28zm-708-732c44-26 115-96 162-158l27-38h-75c-101 0-211-16-332-47-54-14-100-22-102-17s-11 25-21 44c-15 31-21 35-54 33-37-1-38-1-38 36 0 58 28 88 103 106 21 6 22 3 19-43-3-35 1-52 12-62 22-17 30-7 16 20-15 27 1 78 34 109 59 56 171 64 249 17zm324-377c24-12 76-57 120-104 61-64 85-100 111-160 42-97 48-151 32-268-15-116-55-205-118-270-68-70-71-71-139-40-116 54-245 29-337-66-34-35-41-38-69-30-45 13-51 23-31 54 14 21 15 33 7 54-7 20-6 30 4 39 7 7 13 22 13 32 0 14 7 20 24 20 14 0 39 12 57 27 29 25 38 27 108 24 50-1 88 3 112 13 48 20 115 95 147 164 23 48 27 71 27 147 0 79-4 97-28 145-16 30-59 87-98 125-86 88-91 115-20 115 19 0 54-9 78-21zm31-894c136-72 212-145 214-205 1-36-17-52-81-75-48-16-131-20-146-6-6 4-46 21-90 37-49 17-103 47-143 77-35 27-82 57-105 67l-42 19 49 46c105 101 207 113 344 40zm1078 6c51-30 141-120 176-176 39-64 8-115-83-134-44-10-55-9-64 2-5 8-21 17-35 22-34 10-162 84-227 131-13 9-39 22-58 28l-36 13 53 53c93 95 181 114 274 61z" fill="#333"/>
   <path id="path7526" d="m1287 1023c-17-16-4-61 36-126 71-118 107-146 141-111 19 19 13 48-22 112-50 89-128 152-155 125z" fill="#000000" />
   <path id="path7528" d="m515 593c-26-7-75-40-98-67-36-42-142-276-162-358l-7-28h377l30 81c16 44 36 85 45 90 12 8 13 11 1 16-35 14-51 44-51 93 0 42-3 50-18 50-34 0-55 35-47 76 9 49-10 62-70 47zm37-73c1-22 2-47 2-56 1-11-12-22-34-29-19-7-57-22-83-34-27-12-51-20-54-17-10 10 53 110 91 142 55 47 76 45 78-6z" fill="#1a1a1a"/>
  </g>
 </g>
 <g id="layer4">
  <g id="flowRoot7573" transform="matrix(1.2565 0 0 1.2565 -39.695 -79.101)" aria-label="Tupot">
   <path id="path7600" d="m178.42 74.555t0-0.25q-0.875-3.875 1.0625-6.375t5.0625-2.5h47.938q3.1875 0 5.1875 2.625t0.9375 6.25v0.25q-0.5 2.0625-2.375 3.5-1.9375 1.4375-3.75 1.25l-14.375-1.125v56.75q0 4.0625-2.75 6.875-2.75 2.75-6.875 2.75h-0.0625q-4 0-6.75-2.75t-2.75-6.875v-56.75l-14.375 1.125q-2.125 0.1875-3.9375-1.4375-1.8125-1.5625-2.1875-3.3125z" />
   <path id="path7602" d="m246.84 116.37t0-22.688q0-2.875 2.5-5.375 1.75-1.75 6.1875-1.6875h0.1875q4.4375 0 6.1875 1.6875 2.5 2.5 2.5 5.375v23.938q0 8.4375 5.5 11.062 6.625 3.25 12.062-0.0625 5.4375-3.25 5.6875-8.1875v-25.938q0-3.6875 2.625-6.1875 1.8125-1.75 6.3125-1.6875h0.1875q4.4375 0 6.1875 1.6875 2.5 2.5 2.5 6.1875v43.75q0 2.3125-1.625 4-1.5625 1.6875-4.0625 1.6875h-6.625q-2.25 0-4-1.8125-1.75-1.875-1.6875-3.875-22.438 13.25-34-1.375-6.625-8.4375-6.625-20.5z" style="font-feature-settings:normal;font-variant-caps:normal;font-variant-ligatures:normal;font-variant-numeric:normal"/>
   <path id="path7604" d="m355.52 119.12t0-7.5q0-6.375-3.4375-10.938-3.375-4.625-8.3125-4.625-2.875-0.4375-5.8125 0.625-5.9375 1.9375-5.9375 9 0 0 0 21.188 1.125 3.625 6.5 5.625 5.375 1.9375 11.062-0.8125 2.75-1.125 4.375-4.6875 1.5625-3.5625 1.5625-7.875zm-10.25 24.438q-7.125 0-13.25-3.6875v19.5q0 3.625-2.6875 6.375-2.5625 2.5625-6.1875 2.5h-0.25q-3.9375 0-6.375-2.5-2.5-2.5-2.5-6.375v-69.875q0-1.4375 1-2.5625t2.625-1.125h10.75q1.5625 0 2.625 1.1875t1 2.5q6.125-3.6875 13.25-3.6875 11.438 0 19.375 8.4375 7.9375 8.4375 8 20.438 0 12-8 20.438-7.9375 8.4375-19.375 8.4375z" style="font-feature-settings:normal;font-variant-caps:normal;font-variant-ligatures:normal;font-variant-numeric:normal"/>
   <path id="path7606" d="m409.69 133.74q5.125 0 9.25-4.6875 3.3125-3.8125 3.3125-18.625-0.0625-7.4375-3.5-11.25-3.5-3.8125-9.0625-3.8125-4.8125 0-8.375 4-4.25 4.75-4.25 11.063 0.0625 14 4.25 18.625t8.375 4.6875zm21.312-40.313q8.8125 8.75 8.8125 21.125t-8.9375 21.188q-8.875 8.75-19.5 8.6875-0.875 0.0625-1.6875 0-12 0.5-21.062-8.5-9-9-9-21.438 0.0625-12.5 8.75-21.188 8.75-8.6875 19.562-8.625 0.8125-0.0625 1.6875-0.0625 12.562 0 21.375 8.8125z" style="font-feature-settings:normal;font-variant-caps:normal;font-variant-ligatures:normal;font-variant-numeric:normal"/>
   <path id="path7608" d="m469.73 116.62q0 9.5625 5.25 12.312 4.0625 2.25 1.9375 8.4375-2.125 6.375-6.75 6.375-7.5 0-12.062-8.875-3.875-7.625-3.875-19.375v-15.312h-2.25q-2.5625 0-4.25-1.625-1.75-1.5625-1.6875-4.1875v-0.125q0-2.4375 1.6875-4.1875t4.25-1.75h2.25v-6.375q0-4.375 3.4375-6.9375 1.875-1.5 5.3125-1.5h0.25q2.125 0 4.3125 2.75t2.1875 5.6875v6.375h5.25q2.3125 0 4.0625 1.8125t1.75 4.125v0.125q0 2.6875-1.6875 4.25-1.6875 1.5625-4.125 1.5625h-5.25z" style="font-feature-settings:normal;font-variant-caps:normal;font-variant-ligatures:normal;font-variant-numeric:normal"/>
  </g>
 </g>
</symbol>
</svg>
